<svg width="358" height="488" viewBox="0 0 358 488" fill="none" xmlns="http://www.w3.org/2000/svg">
<path fill-rule="evenodd" clip-rule="evenodd" d="M92.5 115H117.558C116.636 -8.41043 225.111 -51.4378 243.449 115L268.5 115C260.475 -25.65 111.058 -50.5136 92.5 115ZM44.3533 140.821C46.4374 126.014 59.1074 115.002 74.0604 115.002H282.518C297.426 115.002 310.072 125.95 312.208 140.704L357.522 453.704C360.141 471.795 346.111 488.002 327.831 488.002H30.0055C11.774 488.002 -2.24275 471.875 0.298305 453.821L44.3533 140.821ZM146.984 238C142.063 238 137.456 240.413 134.654 244.458L129.615 251.73H229L223.648 244.262C220.831 240.331 216.291 238 211.455 238H146.984ZM237.5 279.192H121.769L134.788 381.776C136.69 396.764 149.441 408 164.549 408H195.501C210.695 408 223.49 396.64 225.289 381.553L237.5 279.192ZM110 264C110 259.029 114.029 255 119 255H238.962C243.932 255 247.962 259.029 247.962 264V266.923C247.962 271.893 243.932 275.923 238.962 275.923H119C114.029 275.923 110 271.893 110 266.923V264Z" fill="white"/>
</svg>
