<svg width="75" height="75" viewBox="0 0 75 75" fill="none" xmlns="http://www.w3.org/2000/svg">
<path fill-rule="evenodd" clip-rule="evenodd" d="M37.5 75C58.2107 75 75 58.2107 75 37.5C75 16.7893 58.2107 0 37.5 0C16.7893 0 0 16.7893 0 37.5C0 58.2107 16.7893 75 37.5 75ZM38 64C54.2924 64 67.5 51.2401 67.5 35.5C67.5 19.7599 54.2924 7 38 7C21.7076 7 8.5 19.7599 8.5 35.5C8.5 51.2401 21.7076 64 38 64Z" fill="#412215"/>
<ellipse cx="32" cy="32" rx="31.5" ry="32" fill="#412215"/>
<path fill-rule="evenodd" clip-rule="evenodd" d="M32.7193 29.0696H34.2686C34.2116 21.483 40.9186 18.8379 42.0524 29.0696L43.6013 29.0696C43.1051 20.4232 33.8667 18.8947 32.7193 29.0696ZM29.7424 30.657C29.8712 29.7467 30.6546 29.0698 31.5791 29.0698H44.468C45.3898 29.0698 46.1717 29.7428 46.3038 30.6498L49.1055 49.8915C49.2674 51.0036 48.3999 52 47.2697 52H28.8552C27.728 52 26.8613 51.0085 27.0184 49.8987L29.7424 30.657ZM36.088 36.631C35.7837 36.631 35.4989 36.7794 35.3256 37.0281L35.0141 37.4751H41.159L40.8281 37.016C40.6539 36.7744 40.3733 36.631 40.0742 36.631H36.088ZM41.6846 39.1633H34.529L35.3339 45.4697C35.4515 46.3911 36.2399 47.0818 37.174 47.0818H39.0878C40.0272 47.0818 40.8183 46.3835 40.9296 45.456L41.6846 39.1633ZM33.8013 38.2294C33.8013 37.9238 34.0504 37.6761 34.3577 37.6761H41.7749C42.0823 37.6761 42.3314 37.9238 42.3314 38.2294V38.4091C42.3314 38.7147 42.0823 38.9624 41.7749 38.9624H34.3577C34.0504 38.9624 33.8013 38.7147 33.8013 38.4091V38.2294Z" fill="white"/>
</svg>
