<svg width="17" height="17" viewBox="0 0 17 17" fill="none" xmlns="http://www.w3.org/2000/svg">
<path d="M11 8.5C11 9.88075 9.88075 11 8.5 11C7.11925 11 6 9.88075 6 8.5C6 7.11925 7.11925 6 8.5 6C9.88075 6 11 7.11925 11 8.5Z" fill="#412215"/>
<path d="M14.3333 8.5C14.3333 11.7217 11.7217 14.3333 8.5 14.3333M14.3333 8.5C14.3333 5.27834 11.7217 2.66667 8.5 2.66667M14.3333 8.5H16M8.5 14.3333C5.27834 14.3333 2.66667 11.7217 2.66667 8.5M8.5 14.3333V16M8.5 2.66667C5.27834 2.66667 2.66667 5.27834 2.66667 8.5M8.5 2.66667V1M2.66667 8.5H1M11 8.5C11 9.88075 9.88075 11 8.5 11C7.11925 11 6 9.88075 6 8.5C6 7.11925 7.11925 6 8.5 6C9.88075 6 11 7.11925 11 8.5Z" stroke="#412215" stroke-width="2" stroke-linecap="round" stroke-linejoin="round"/>
</svg>
