<svg width="21" height="20" viewBox="0 0 21 20" fill="none" xmlns="http://www.w3.org/2000/svg">
<path d="M20.4488 17.691L16.6722 14.0094C17.8907 12.4917 18.5519 10.6175 18.5494 8.68801C18.5494 6.96969 18.0282 5.28995 17.0518 3.86121C16.0754 2.43248 14.6876 1.31891 13.0639 0.661339C11.4402 0.00376435 9.65351 -0.168287 7.9298 0.166942C6.20608 0.50217 4.62274 1.32962 3.38 2.54466C2.13727 3.7597 1.29096 5.30776 0.94809 6.99307C0.605221 8.67837 0.781194 10.4252 1.45376 12.0128C2.12632 13.6003 3.26526 14.9572 4.72656 15.9118C6.18786 16.8665 7.90588 17.376 9.66337 17.376C11.6368 17.3784 13.5537 16.732 15.1061 15.5407L18.8715 19.2331C18.9748 19.3349 19.0976 19.4157 19.233 19.4708C19.3683 19.5259 19.5135 19.5543 19.6602 19.5543C19.8068 19.5543 19.952 19.5259 20.0873 19.4708C20.2227 19.4157 20.3455 19.3349 20.4488 19.2331C20.5529 19.1321 20.6355 19.012 20.6919 18.8797C20.7483 18.7473 20.7773 18.6054 20.7773 18.462C20.7773 18.3187 20.7483 18.1767 20.6919 18.0444C20.6355 17.912 20.5529 17.7919 20.4488 17.691ZM2.99885 8.68801C2.99885 7.39927 3.38972 6.13946 4.12203 5.06791C4.85433 3.99636 5.89519 3.16119 7.11297 2.66801C8.33075 2.17483 9.67076 2.04579 10.9636 2.29721C12.2563 2.54863 13.4438 3.16922 14.3759 4.0805C15.3079 4.99178 15.9427 6.15282 16.1998 7.4168C16.457 8.68078 16.325 9.99093 15.8206 11.1816C15.3162 12.3722 14.462 13.3899 13.366 14.1059C12.27 14.8219 10.9815 15.204 9.66337 15.204C7.89583 15.204 6.20069 14.5175 4.95085 13.2955C3.70101 12.0735 2.99885 10.4162 2.99885 8.68801Z" fill="white"/>
</svg>
