<svg width="76" height="75" viewBox="0 0 76 75" fill="none" xmlns="http://www.w3.org/2000/svg">
<path fill-rule="evenodd" clip-rule="evenodd" d="M38 75C58.7107 75 75.5 58.2107 75.5 37.5C75.5 16.7893 58.7107 0 38 0C17.2893 0 0.5 16.7893 0.5 37.5C0.5 58.2107 17.2893 75 38 75ZM38.5 64C54.7924 64 68 51.2401 68 35.5C68 19.7599 54.7924 7 38.5 7C22.2076 7 9 19.7599 9 35.5C9 51.2401 22.2076 64 38.5 64Z" fill="#412215"/>
<ellipse cx="32.5" cy="32" rx="31.5" ry="32" fill="#412215"/>
<path fill-rule="evenodd" clip-rule="evenodd" d="M42.1142 34.0242C43.5055 32.7684 44.3854 30.9157 44.3854 28.8493C44.3854 25.0665 41.437 22 37.8 22C34.163 22 31.2146 25.0665 31.2146 28.8493C31.2146 30.9295 32.1062 32.7931 33.5137 34.0493C33.4443 34.0555 33.3751 34.0618 33.3059 34.0683C29.5202 34.4231 27 37.9355 27 41.8889V49.9452C27 51.08 27.8845 52 28.9756 52H46.6244C47.7155 52 48.6 51.08 48.6 49.9452V41.7118C48.6 37.843 46.176 34.4 42.4711 34.0559C42.3526 34.0449 42.2337 34.0343 42.1142 34.0242Z" fill="white"/>
</svg>
