<svg width="121" height="121" viewBox="0 0 121 121" fill="none" xmlns="http://www.w3.org/2000/svg">
<path d="M82.9555 120.143V73.6587H98.5023L100.846 55.5337H82.9555V43.9712C82.9555 41.0545 83.5674 38.867 84.7914 37.4087C86.0154 35.9504 88.3982 35.2212 91.9398 35.2212L101.471 35.1431V18.9712C98.1898 18.5024 93.5544 18.2681 87.5648 18.2681C80.4815 18.2681 74.8174 20.3514 70.5726 24.5181C66.3279 28.6847 64.2055 34.5701 64.2055 42.1743V55.5337H48.5805V73.6587H64.2055V120.143H10.1432C4.62036 120.143 0.143218 115.666 0.143188 110.143L0.142634 10.1431C0.142603 4.62025 4.61976 0.143066 10.1426 0.143066H110.143C115.666 0.143066 120.143 4.62022 120.143 10.1431L120.143 110.143C120.143 115.666 115.666 120.143 110.143 120.143H82.9555Z" fill="white"/>
</svg>
