<svg width="120" height="120" viewBox="0 0 120 120" fill="none" xmlns="http://www.w3.org/2000/svg">
<path fill-rule="evenodd" clip-rule="evenodd" d="M-0.00195312 10.0034C-0.00195312 4.48058 4.47521 0.00342391 9.99806 0.00343124L109.996 0.00356396C115.518 0.00357129 119.996 4.48072 119.996 10.0036V109.584C119.996 115.106 115.518 119.584 109.996 119.584H9.99805C4.4752 119.584 -0.00195312 115.106 -0.00195312 109.584V10.0034ZM101.996 89.2235C103.353 85.7733 104.143 82.1261 104.336 78.4235V78.3635C104.421 76.1155 104.371 74.6502 104.296 72.4123C104.212 69.9316 104.336 66.5015 104.336 60.0035L104.096 41.6435C103.986 37.9339 103.277 34.2664 101.996 30.7835C100.929 27.9163 99.2496 25.316 97.0756 23.1635C94.8779 20.8732 92.191 19.1092 89.2156 18.0035C85.7327 16.7219 82.0652 16.0128 78.3556 15.9035H59.9956H41.6356C37.926 16.0128 34.2586 16.7219 30.7756 18.0035C27.9152 19.0841 25.3176 20.7612 23.1556 22.9235C20.8653 25.1212 19.1013 27.8081 17.9956 30.7835C16.709 34.2628 16.0193 37.9345 15.9556 41.6435V60.0035V78.3635C16.0193 82.0726 16.709 85.7442 17.9956 89.2235C19.0627 92.0907 20.7416 94.691 22.9156 96.8435C25.1133 99.1339 27.8002 100.898 30.7756 102.004C34.2586 103.285 37.926 103.994 41.6356 104.104H59.9956H78.3556C82.0652 103.994 85.7327 103.285 89.2156 102.004C92.0937 100.839 94.7082 99.1071 96.9037 96.9117C99.0992 94.7162 100.831 92.1016 101.996 89.2235Z" fill="white"/>
<path fill-rule="evenodd" clip-rule="evenodd" d="M94.7356 33.7835C94.0212 31.8454 92.8949 30.0854 91.4343 28.6248C89.9737 27.1642 88.2137 26.0379 86.2756 25.3235C83.6144 24.4011 80.8117 23.9542 77.9956 24.0035H59.9956H41.9956C39.1652 24.0312 36.362 24.5593 33.7156 25.5635C31.8072 26.2454 30.0658 27.3258 28.6071 28.7327C27.1485 30.1396 26.006 31.841 25.2556 33.7235C24.3843 36.3957 23.9586 39.1931 23.9956 42.0035V60.0035V78.0035C24.0551 80.8307 24.5822 83.6285 25.5556 86.2835C26.27 88.2216 27.3963 89.9817 28.8569 91.4423C30.3175 92.9028 32.0775 94.0292 34.0156 94.7435C36.5756 95.685 39.2695 96.2116 41.9956 96.3035H59.9956H77.9956C80.826 96.2759 83.6292 95.7477 86.2756 94.7435C88.2137 94.0292 89.9737 92.9028 91.4343 91.4423C92.8949 89.9817 94.0212 88.2216 94.7356 86.2835C95.7398 83.6371 96.2679 80.8339 96.2956 78.0035V60.0035V42.0035C96.2973 39.1703 95.7682 36.3619 94.7356 33.7235V33.7835ZM51.2336 81.1777C54.011 82.3303 56.9886 82.9235 59.9956 82.9235C64.5313 82.9354 68.9685 81.6013 72.7456 79.09C76.5226 76.5788 79.4697 73.0033 81.2136 68.8163C82.9576 64.6293 83.4201 60.0189 82.5425 55.5689C81.6649 51.1189 79.4867 47.0294 76.2837 43.818C73.0807 40.6065 68.9968 38.4177 64.5492 37.5284C60.1015 36.6392 55.49 37.0895 51.2984 38.8225C47.1069 40.5555 43.5237 43.4932 41.0026 47.2636C38.4814 51.0341 37.1356 55.4678 37.1356 60.0035C37.1277 63.0105 37.7132 65.9897 38.8585 68.7701C40.0038 71.5505 41.6864 74.0777 43.8099 76.2068C45.9335 78.3359 48.4562 80.0251 51.2336 81.1777ZM80.5497 39.8253C81.4418 40.8168 82.6692 41.4431 83.9956 41.5835C85.3219 41.4431 86.5494 40.8168 87.4415 39.8253C88.3336 38.8338 88.8272 37.5473 88.8272 36.2135C88.8272 34.8798 88.3336 33.5932 87.4415 32.6017C86.5494 31.6102 85.3219 30.9839 83.9956 30.8435C82.6692 30.9839 81.4418 31.6102 80.5497 32.6017C79.6576 33.5932 79.164 34.8798 79.164 36.2135C79.164 37.5473 79.6576 38.8338 80.5497 39.8253Z" fill="white"/>
<path d="M59.9956 45.1235C57.0526 45.1235 54.1758 45.9962 51.7287 47.6312C49.2817 49.2663 47.3745 51.5902 46.2483 54.3092C45.1221 57.0281 44.8274 60.02 45.4015 62.9064C45.9757 65.7929 47.3929 68.4443 49.4739 70.5253C51.5549 72.6063 54.2063 74.0235 57.0927 74.5976C59.9791 75.1718 62.971 74.8771 65.6899 73.7509C68.4089 72.6246 70.7328 70.7174 72.3679 68.2704C74.0029 65.8234 74.8756 62.9465 74.8756 60.0035C74.8756 58.0494 74.4907 56.1145 73.7429 54.3092C72.9951 52.5038 71.8991 50.8635 70.5173 49.4818C69.1356 48.1 67.4952 47.004 65.6899 46.2562C63.8846 45.5084 61.9497 45.1235 59.9956 45.1235Z" fill="white"/>
</svg>
