<svg width="121" height="120" viewBox="0 0 121 120" fill="none" xmlns="http://www.w3.org/2000/svg">
<path fill-rule="evenodd" clip-rule="evenodd" d="M120.453 10.0001C120.453 4.47719 115.975 3.10689e-05 110.453 6.93942e-05L9.99418 0.000766512C4.47132 0.000804838 -0.00580904 4.47802 -0.00574696 10.0009L-0.00462282 109.998C-0.00456073 115.521 4.47257 119.998 9.99538 119.998H110.453C115.975 119.998 120.453 115.521 120.453 109.998V10.0001ZM21.1739 100.439H39.1736V46.4394H21.1739V100.439ZM23.5553 36.138C25.3106 37.8933 27.6914 38.8795 30.1738 38.8795C31.4919 39.0289 32.8268 38.8983 34.0909 38.4962C35.3551 38.094 36.5201 37.4293 37.5096 36.5457C38.4991 35.6621 39.2908 34.5794 39.8328 33.3686C40.3749 32.1578 40.6551 30.8462 40.6551 29.5196C40.6551 28.193 40.3749 26.8813 39.8328 25.6705C39.2908 24.4597 38.4991 23.3771 37.5096 22.4935C36.5201 21.6098 35.3551 20.9452 34.0909 20.543C32.8268 20.1408 31.4919 20.0102 30.1738 20.1597C27.6914 20.1597 25.3106 21.1458 23.5553 22.9012C21.8 24.6565 20.8139 27.0372 20.8139 29.5196C20.8139 32.002 21.8 34.3827 23.5553 36.138ZM86.093 100.439H104.093V69.359C104.093 52.7393 95.3929 44.9994 83.393 44.9994C80.1205 44.8785 76.877 45.6527 74.0118 47.2386C71.1466 48.8244 68.7684 51.1619 67.1333 53.9993V46.3794H49.1335V100.379H67.1333V70.379C67.0603 68.8945 67.2637 67.4093 67.7332 65.9991C68.4201 64.0952 69.6741 62.4475 71.3262 61.2782C72.9783 60.1088 74.9491 59.474 76.9731 59.4592C83.513 59.4592 86.093 64.1991 86.093 71.459V100.439Z" fill="white"/>
</svg>
