<svg width="121" height="120" viewBox="0 0 121 120" fill="none" xmlns="http://www.w3.org/2000/svg">
<path fill-rule="evenodd" clip-rule="evenodd" d="M0.000110729 9.9888C0.000161405 4.46602 4.47511 0.000151117 9.9979 0.000141368C39.278 8.96805e-05 74.7668 -0.00011361 110.735 8.60997e-05C116.258 0.000116764 120.736 4.48836 120.736 10.0112C120.736 46.9179 120.736 72.2531 120.736 109.989C120.736 115.512 116.245 120 110.722 120C72.8872 120 50.1003 120 10.0113 120C4.48845 120 0.000220143 115.521 0.000200936 109.998C6.8414e-05 71.8928 -0.000124665 35.6427 0.000110729 9.9888ZM100.459 19.7702H86.1548L62.5846 45.922L42.2055 19.7702H12.6899L47.9564 64.5317L14.5319 101.613H28.8443L54.6414 73.0013L77.1868 101.613H105.972L69.209 54.4378L100.459 19.7702Z" fill="white"/>
<path d="M81.1346 93.3024H89.0605L37.8988 27.6439H29.3934L81.1346 93.3024Z" fill="white"/>
</svg>
