<svg width="203" height="245" viewBox="0 0 203 245" fill="none" xmlns="http://www.w3.org/2000/svg">
<path d="M81.6954 76.6862C71.5297 69.0932 64.4701 63.525 60.3671 52.2397L58.9045 44.4942C54.6949 58.785 57.0445 67.7853 76.2109 82.8584C87.4409 92.3288 90.6768 99.705 91.0798 116.382C96.93 104.158 95.4674 86.9733 81.6954 76.6862Z" fill="white"/>
<path d="M94.1268 127.395C117.282 110.089 118.397 89.7449 99.9757 44.4942C91.2971 22.827 93.534 12.8285 114.724 0.200171C84.5234 1.39616 83.3104 28.4461 91.0798 45.3415C105.04 75.6984 117.648 105.974 94.1268 127.395Z" fill="white"/>
<path d="M136.904 77.8965C138.008 68.914 139.52 64.6377 145.436 59.7432C135.52 62.1289 132.746 66.5418 129.834 77.8965L128.007 90.7249C125.148 105.407 121.25 111.856 111.31 122.917C123.132 118.56 133.982 110.694 136.172 90.7249C136.904 83.9476 136.904 77.8965 136.904 77.8965Z" fill="white"/>
<path fill-rule="evenodd" clip-rule="evenodd" d="M27.9469 134.777H177.367V137.803C206.495 127.395 212.224 172.051 153.602 189.236L143.364 197.225C243.542 231.361 -28.3066 234.119 56.5877 199.04C70.8445 208.031 79.9966 209.552 97.2943 209.326C51.5907 201.255 27.9469 173.747 27.9469 134.777ZM163.5 178.5L181.5 143C192.294 139.103 195 143.5 194 151.5C193 159.5 180.822 171.859 163.5 178.5Z" fill="white"/>
</svg>
