<svg width="175" height="175" viewBox="0 0 175 175" fill="none" xmlns="http://www.w3.org/2000/svg">
<circle cx="87.5" cy="87.5" r="87.5" fill="black"/>
<path fill-rule="evenodd" clip-rule="evenodd" d="M95.1933 14.1019C80.8081 13.0294 76.915 20.4057 78.6252 37.1332C73.7413 38.1828 67.621 40.6527 67.621 40.6527C69.7022 46.4105 73.2832 49.2514 78.4397 53.1254C85.4255 58.3739 86.1674 67.1418 83.1999 73.3782C82.9955 64.8697 81.3541 61.1063 75.6577 56.2745C65.9356 48.5841 64.7438 43.9921 66.8791 36.7009C65.6082 38.5928 65.0826 39.7191 64.7772 41.9494C23.3566 64.3015 32.3822 117.527 64.8385 133.21C86.7851 144.448 106.197 136.545 112.936 132.655C145.268 115.674 151.883 64.9807 112.936 41.9494C102.689 37.6376 96.9092 35.8414 87.7123 36.7009C97.0563 59.788 96.4909 70.1674 84.7455 78.9972C96.6763 68.068 90.281 52.6214 83.1999 37.1332C79.2589 28.5131 79.8742 14.7121 95.1933 14.1019ZM106.444 53.7429C107.004 49.16 107.771 46.9782 110.772 44.481C105.742 45.6982 104.335 47.9497 102.858 53.7429L101.931 60.288C100.481 67.779 98.5035 71.0694 93.4616 76.7125C99.4583 74.4896 104.962 70.4761 106.073 60.288C106.444 56.8302 106.444 53.7429 106.444 53.7429ZM126.969 82.7636H51.1759C51.1759 102.646 63.1692 116.681 86.3522 120.799C77.578 120.914 72.9356 120.138 65.7039 115.551C22.6416 133.448 160.536 132.041 109.721 114.625L114.914 110.549C144.65 101.781 141.744 78.9972 126.969 84.3073V82.7636Z" fill="white"/>
<path d="M126.969 88.8147C125.014 95.1684 123.68 98.4857 120.91 103.387C127.862 100.213 130.828 97.8312 133.522 91.9021C134.014 88.1264 133.445 86.5567 126.969 88.8147Z" fill="white"/>
<path fill-rule="evenodd" clip-rule="evenodd" d="M95.1933 14.1019C80.8081 13.0294 76.915 20.4057 78.6252 37.1332C73.7413 38.1828 67.621 40.6527 67.621 40.6527C69.7022 46.4105 73.2832 49.2514 78.4397 53.1254C85.4255 58.3739 86.1674 67.1418 83.1999 73.3782C82.9955 64.8697 81.3541 61.1063 75.6577 56.2745C65.9356 48.5841 64.7438 43.9921 66.8791 36.7009C65.6082 38.5928 65.0826 39.7191 64.7772 41.9494C23.3566 64.3015 32.3822 117.527 64.8385 133.21C86.7851 144.448 106.197 136.545 112.936 132.655C145.268 115.674 151.883 64.9807 112.936 41.9494C102.689 37.6376 96.9092 35.8414 87.7123 36.7009C97.0563 59.788 96.4909 70.1674 84.7455 78.9972C96.6763 68.068 90.281 52.6214 83.1999 37.1332C79.2589 28.5131 79.8742 14.7121 95.1933 14.1019ZM106.444 53.7429C107.004 49.16 107.771 46.9782 110.772 44.481C105.742 45.6982 104.335 47.9497 102.858 53.7429L101.931 60.288C100.481 67.779 98.5035 71.0694 93.4616 76.7125C99.4583 74.4896 104.962 70.4761 106.073 60.288C106.444 56.8302 106.444 53.7429 106.444 53.7429ZM126.969 82.7636H51.1759C51.1759 102.646 63.1692 116.681 86.3522 120.799C77.578 120.914 72.9356 120.138 65.7039 115.551C22.6416 133.448 160.536 132.041 109.721 114.625L114.914 110.549C144.65 101.781 141.744 78.9972 126.969 84.3073V82.7636Z" stroke="white"/>
<path d="M126.969 88.8147C125.014 95.1684 123.68 98.4857 120.91 103.387C127.862 100.213 130.828 97.8312 133.522 91.9021C134.014 88.1264 133.445 86.5567 126.969 88.8147Z" stroke="white"/>
<path d="M34.0035 48.684L34.6814 47.8732C34.9547 48.0203 35.2297 48.1076 35.5065 48.1354C35.7814 48.1653 36.0499 48.1453 36.3119 48.0756C36.5743 48.0098 36.8216 47.9 37.0539 47.7461C37.2862 47.5923 37.4953 47.4042 37.6812 47.1819C38.0201 46.7765 38.2247 46.3236 38.295 45.8232C38.3635 45.325 38.2794 44.8122 38.0427 44.2847C37.8042 43.7595 37.3951 43.2545 36.8154 42.7698C36.2356 42.285 35.6662 41.9718 35.1069 41.8302C34.5459 41.6907 34.0263 41.6987 33.5481 41.8544C33.0681 42.0122 32.6586 42.2938 32.3196 42.6992C32.1338 42.9215 31.9857 43.1606 31.8754 43.4165C31.7652 43.6724 31.6998 43.9343 31.6794 44.2024C31.6593 44.4744 31.6883 44.7431 31.7665 45.0084C31.845 45.2777 31.9797 45.5329 32.1706 45.774L31.4927 46.5848C31.2016 46.2377 30.9883 45.8705 30.8529 45.4832C30.7175 45.096 30.6552 44.7032 30.666 44.305C30.679 43.9085 30.7613 43.52 30.9129 43.1394C31.0626 42.761 31.2787 42.4029 31.5612 42.065C32.0386 41.494 32.6027 41.1028 33.2534 40.8914C33.9041 40.6801 34.5932 40.6619 35.3208 40.837C36.0484 41.012 36.7652 41.3947 37.4714 41.9851C38.1775 42.5755 38.6812 43.2133 38.9823 43.8983C39.2835 44.5834 39.3877 45.2648 39.2949 45.9427C39.2022 46.6206 38.9171 47.245 38.4397 47.816C38.1572 48.1539 37.843 48.43 37.4971 48.6444C37.1494 48.861 36.7805 49.0099 36.3904 49.0911C36.0026 49.1741 35.6061 49.1833 35.201 49.1186C34.798 49.0558 34.3989 48.9109 34.0035 48.684Z" fill="white"/>
<path d="M26.1243 49.7759L26.6794 48.8171L32.6266 55.963L32.0801 56.9071L22.9217 55.3078L23.4768 54.3489L31.1414 55.7728L31.1756 55.7138L26.1243 49.7759ZM28.8696 51.838L26.6321 55.703L25.8207 55.2332L28.0583 51.3683L28.8696 51.838Z" fill="white"/>
<path d="M20.5452 60.624L28.7151 63.6931L26.8748 68.5918L25.9972 68.2621L27.4658 64.3527L24.7053 63.3157L23.3746 66.8581L22.4969 66.5284L23.8277 62.986L20.1736 61.6133L20.5452 60.624Z" fill="white"/>
<path d="M16.9575 71.7362L25.5108 73.4703L24.4709 78.5989L23.5521 78.4127L24.382 74.3198L21.4919 73.7338L20.74 77.4425L19.8212 77.2562L20.5731 73.5476L16.7475 72.7719L16.9575 71.7362Z" fill="white"/>
<path d="M15.1769 83.2769L23.8969 83.6322L23.6825 88.8949L22.7458 88.8567L22.9172 84.65L19.9708 84.5299L19.8105 88.4642L18.8737 88.426L19.034 84.4918L16.0706 84.371L15.8964 88.6459L14.9597 88.6077L15.1769 83.2769Z" fill="white"/>
<path d="M24.0682 95.1103L15.3796 95.9302L15.2803 94.878L23.969 94.0582L24.0682 95.1103Z" fill="white"/>
<path d="M26.4912 107.641L18.0164 109.725L17.7722 108.732L23.2905 102.478L23.2701 102.395L16.6161 104.031L16.3637 103.005L24.8385 100.921L25.0827 101.914L19.5519 108.189L19.5723 108.272L26.2429 106.632L26.4912 107.641Z" fill="white"/>
<path d="M20.3543 116.226L19.9037 115.213L29.1799 114.592L29.6236 115.588L22.954 122.065L22.5033 121.053L28.1543 115.683L28.1265 115.62L20.3543 116.226ZM23.6351 115.213L25.4514 119.293L24.5949 119.674L22.7787 115.594L23.6351 115.213Z" fill="white"/>
<path d="M32.0984 122.414L32.8804 121.897L36.4908 127.357L35.7089 127.874L34.1951 125.585L27.6976 129.881L27.1146 129L33.6122 124.703L32.0984 122.414Z" fill="white"/>
<path d="M32.7559 136.535L39.1796 130.628L42.745 134.504L42.055 135.139L39.2049 132.04L37.0344 134.036L39.6999 136.934L39.0098 137.569L36.3444 134.671L34.1614 136.679L37.0576 139.828L36.3675 140.462L32.7559 136.535Z" fill="white"/>
<path d="M43.1849 146.428L41.0602 144.773L46.4232 137.888L48.642 139.616C49.3099 140.136 49.774 140.719 50.0344 141.365C50.2966 142.009 50.3544 142.686 50.2079 143.396C50.0631 144.105 49.7131 144.815 49.158 145.528C48.5993 146.245 47.9906 146.763 47.3319 147.082C46.6748 147.398 45.9938 147.505 45.2887 147.402C44.5854 147.297 43.8841 146.973 43.1849 146.428ZM42.47 144.683L43.7072 145.646C44.2765 146.09 44.8338 146.347 45.3791 146.419C45.9245 146.491 46.4471 146.396 46.9468 146.133C47.4466 145.871 47.9147 145.46 48.3512 144.899C48.7841 144.343 49.0661 143.794 49.197 143.252C49.3297 142.707 49.2994 142.186 49.1062 141.69C48.9147 141.192 48.55 140.733 48.0121 140.314L46.6808 139.277L42.47 144.683Z" fill="white"/>
<path d="M67.2829 152.745L66.3014 152.353C66.3561 152.048 66.3536 151.759 66.2938 151.487C66.2366 151.217 66.1342 150.968 65.9863 150.741C65.8421 150.512 65.6608 150.311 65.4423 150.138C65.2238 149.965 64.98 149.825 64.7109 149.717C64.2201 149.521 63.7261 149.468 63.2286 149.557C62.7339 149.647 62.2727 149.886 61.8451 150.275C61.4201 150.666 61.0675 151.211 60.7873 151.913C60.5071 152.615 60.3866 153.254 60.426 153.829C60.468 154.406 60.6374 154.897 60.9341 155.303C61.2335 155.71 61.6286 156.012 62.1193 156.208C62.3884 156.315 62.6617 156.381 62.9392 156.407C63.2167 156.432 63.486 156.412 63.7471 156.348C64.0119 156.283 64.2582 156.172 64.486 156.015C64.7175 155.856 64.9181 155.649 65.0878 155.392L66.0693 155.784C65.83 156.169 65.5474 156.486 65.2216 156.735C64.8957 156.984 64.5418 157.166 64.1599 157.28C63.7791 157.391 63.3843 157.433 62.9754 157.408C62.5692 157.383 62.1616 157.289 61.7527 157.126C61.0614 156.85 60.5141 156.436 60.1107 155.883C59.7074 155.33 59.4756 154.681 59.4156 153.935C59.3555 153.189 59.4961 152.389 59.8375 151.534C60.1788 150.679 60.6281 150.002 61.1854 149.503C61.7427 149.003 62.3579 148.692 63.031 148.569C63.7041 148.447 64.3862 148.523 65.0775 148.799C65.4864 148.963 65.8466 149.175 66.158 149.437C66.4721 149.7 66.7284 150.004 66.9269 150.35C67.1266 150.693 67.2587 151.067 67.3233 151.472C67.3889 151.874 67.3755 152.299 67.2829 152.745Z" fill="white"/>
<path d="M78.5263 157.045C78.3415 157.947 78.0189 158.693 77.5586 159.283C77.0984 159.873 76.5479 160.288 75.9071 160.528C75.2663 160.768 74.5814 160.813 73.8522 160.663C73.1231 160.514 72.5111 160.203 72.0164 159.73C71.5217 159.257 71.1789 158.659 70.9879 157.936C70.7969 157.212 70.7939 156.4 70.9787 155.498C71.1636 154.596 71.4862 153.85 71.9464 153.26C72.4067 152.67 72.9572 152.255 73.598 152.016C74.2387 151.776 74.9237 151.731 75.6528 151.88C76.382 152.029 76.9939 152.341 77.4886 152.813C77.9833 153.286 78.3262 153.884 78.5171 154.607C78.7081 155.331 78.7112 156.144 78.5263 157.045ZM77.5244 156.84C77.6762 156.1 77.6804 155.449 77.5372 154.889C77.3967 154.33 77.1431 153.876 76.7765 153.528C76.4127 153.181 75.9719 152.955 75.4543 152.848C74.9367 152.742 74.4409 152.777 73.967 152.952C73.4959 153.129 73.0844 153.446 72.7323 153.904C72.3829 154.363 72.1324 154.963 71.9806 155.703C71.8289 156.444 71.8232 157.094 71.9637 157.653C72.107 158.213 72.3606 158.667 72.7244 159.014C73.091 159.362 73.5331 159.589 74.0508 159.695C74.5684 159.801 75.0628 159.766 75.5339 159.59C76.0077 159.414 76.4193 159.097 76.7686 158.638C77.1207 158.18 77.3727 157.58 77.5244 156.84Z" fill="white"/>
<path d="M83.7151 161.882L83.9824 153.158L89.2129 153.319L89.1842 154.256L85.01 154.128L84.9197 157.075L88.702 157.191L88.6733 158.128L84.891 158.012L84.7714 161.914L83.7151 161.882Z" fill="white"/>
<path d="M95.3902 161.69L94.2703 153.035L99.46 152.364L99.5803 153.293L95.4387 153.829L95.8171 156.754L99.5699 156.268L99.6902 157.198L95.9374 157.683L96.4383 161.555L95.3902 161.69Z" fill="white"/>
<path d="M106.887 159.649L104.409 151.281L109.459 149.785L109.725 150.684L105.688 151.88L106.526 154.707L110.301 153.589L110.567 154.488L106.792 155.606L107.634 158.45L111.737 157.235L112.003 158.134L106.887 159.649Z" fill="white"/>
<path d="M117.916 155.81L114.141 147.941L118.89 145.663L119.296 146.508L115.5 148.329L116.775 150.988L120.325 149.285L120.731 150.13L117.181 151.833L118.464 154.507L122.321 152.657L122.727 153.502L117.916 155.81Z" fill="white"/>
<path d="M128.65 150.008C128.475 150.124 128.283 150.16 128.074 150.117C127.866 150.074 127.703 149.965 127.588 149.789C127.472 149.613 127.436 149.421 127.479 149.213C127.522 149.004 127.631 148.842 127.807 148.726C127.982 148.611 128.175 148.575 128.383 148.618C128.592 148.661 128.754 148.77 128.869 148.946C128.946 149.062 128.986 149.188 128.991 149.324C128.998 149.459 128.973 149.588 128.914 149.712C128.857 149.831 128.769 149.93 128.65 150.008Z" fill="white"/>
<path d="M139.124 132.116C138.772 131.861 138.385 131.787 137.963 131.893C137.541 131.999 137.151 132.246 136.793 132.635C136.532 132.92 136.349 133.211 136.245 133.509C136.143 133.804 136.117 134.086 136.169 134.353C136.222 134.618 136.351 134.845 136.556 135.034C136.727 135.191 136.912 135.286 137.111 135.318C137.309 135.346 137.508 135.333 137.709 135.278C137.908 135.221 138.099 135.146 138.282 135.052C138.463 134.956 138.624 134.863 138.765 134.772L139.54 134.282C139.738 134.155 139.97 134.024 140.236 133.891C140.504 133.755 140.791 133.654 141.098 133.589C141.405 133.52 141.718 133.519 142.039 133.586C142.359 133.653 142.67 133.825 142.971 134.102C143.318 134.421 143.548 134.801 143.661 135.24C143.776 135.678 143.756 136.146 143.602 136.645C143.45 137.142 143.147 137.637 142.693 138.131C142.27 138.591 141.83 138.921 141.371 139.121C140.915 139.319 140.466 139.392 140.023 139.34C139.583 139.286 139.175 139.11 138.801 138.812L139.54 138.009C139.801 138.211 140.077 138.314 140.367 138.318C140.656 138.318 140.941 138.244 141.22 138.096C141.499 137.943 141.756 137.74 141.991 137.485C142.264 137.188 142.461 136.877 142.582 136.552C142.701 136.225 142.737 135.913 142.691 135.616C142.642 135.316 142.5 135.059 142.266 134.843C142.053 134.647 141.824 134.547 141.581 134.543C141.338 134.539 141.085 134.596 140.822 134.714C140.56 134.831 140.293 134.974 140.023 135.142L139.07 135.725C138.464 136.094 137.893 136.302 137.356 136.348C136.819 136.395 136.334 136.219 135.901 135.821C135.542 135.49 135.317 135.105 135.229 134.664C135.14 134.219 135.173 133.764 135.328 133.297C135.483 132.826 135.75 132.385 136.126 131.976C136.507 131.561 136.92 131.262 137.365 131.076C137.807 130.889 138.242 130.818 138.671 130.865C139.101 130.909 139.483 131.075 139.816 131.363L139.124 132.116Z" fill="white"/>
<path d="M141.576 125.283L148.735 130.274L148.131 131.141L140.972 126.15L141.576 125.283Z" fill="white"/>
<path d="M147.829 114.156L155.642 118.044L155.186 118.96L146.933 120.165L146.895 120.241L153.03 123.294L152.559 124.24L144.746 120.352L145.201 119.437L153.477 118.224L153.515 118.148L147.365 115.087L147.829 114.156Z" fill="white"/>
<path d="M154.167 103.494L153.871 104.509C153.562 104.483 153.275 104.514 153.01 104.599C152.746 104.682 152.508 104.808 152.296 104.977C152.082 105.142 151.9 105.342 151.748 105.576C151.597 105.81 151.481 106.066 151.4 106.344C151.252 106.851 151.246 107.348 151.382 107.835C151.519 108.319 151.801 108.755 152.23 109.143C152.659 109.529 153.236 109.828 153.961 110.04C154.687 110.251 155.334 110.31 155.903 110.216C156.473 110.119 156.946 109.903 157.321 109.569C157.698 109.232 157.96 108.81 158.108 108.303C158.19 108.024 158.229 107.746 158.228 107.467C158.226 107.189 158.181 106.923 158.093 106.669C158.002 106.411 157.868 106.177 157.69 105.965C157.51 105.75 157.284 105.57 157.013 105.426L157.309 104.411C157.715 104.613 158.057 104.864 158.337 105.164C158.616 105.465 158.83 105.799 158.98 106.169C159.127 106.537 159.207 106.926 159.221 107.335C159.235 107.742 159.181 108.157 159.057 108.58C158.849 109.294 158.489 109.879 157.977 110.333C157.466 110.787 156.842 111.08 156.105 111.211C155.368 111.343 154.558 111.279 153.675 111.021C152.791 110.763 152.074 110.381 151.524 109.874C150.973 109.367 150.605 108.784 150.418 108.126C150.231 107.468 150.242 106.782 150.451 106.067C150.574 105.644 150.751 105.266 150.982 104.93C151.214 104.593 151.492 104.308 151.817 104.078C152.139 103.846 152.499 103.679 152.896 103.576C153.29 103.472 153.714 103.445 154.167 103.494Z" fill="white"/>
<path d="M160.891 99.7078L152.225 98.6753L152.848 93.4452L153.779 93.5561L153.281 97.7368L156.209 98.0857L156.675 94.1758L157.606 94.2867L157.14 98.1966L160.085 98.5475L160.591 94.2991L161.522 94.41L160.891 99.7078Z" fill="white"/>
<path d="M152.149 78.3476L160.793 77.1405L160.939 78.1872L153.393 79.2411L153.4 79.2917L155.096 81.2062L154.032 81.3547L152.296 79.3943L152.149 78.3476Z" fill="white"/>
<path d="M150.161 70.2503C150.063 69.9061 150.027 69.5434 150.054 69.1623C150.081 68.7813 150.202 68.4053 150.416 68.0346C150.627 67.6646 150.962 67.3188 151.421 66.9973C151.88 66.6758 152.494 66.4022 153.263 66.1763C154.007 65.9576 154.689 65.8342 155.308 65.8062C155.924 65.7762 156.469 65.8353 156.942 65.9835C157.414 66.1291 157.807 66.3599 158.122 66.6759C158.436 66.9893 158.663 67.3817 158.801 67.8532C158.939 68.3221 158.969 68.7677 158.892 69.1901C158.811 69.6106 158.639 69.9869 158.376 70.3191C158.108 70.6493 157.764 70.9119 157.341 71.1071L157.048 70.1095C157.406 69.9066 157.671 69.6348 157.843 69.294C158.012 68.9513 158.032 68.5591 157.902 68.1176C157.712 67.4716 157.28 67.0448 156.606 66.8372C155.931 66.6268 155.079 66.6731 154.049 66.9758L154.068 67.0412C154.342 67.1266 154.593 67.2498 154.821 67.4108C155.048 67.5718 155.245 67.7672 155.41 67.997C155.576 68.2268 155.701 68.4861 155.785 68.775C155.926 69.2548 155.937 69.7298 155.818 70.2001C155.695 70.6686 155.46 71.084 155.114 71.4464C154.764 71.8069 154.319 72.0664 153.779 72.225C153.267 72.3756 152.764 72.3989 152.272 72.2949C151.776 72.189 151.34 71.9647 150.964 71.6222C150.587 71.2769 150.319 70.8196 150.161 70.2503ZM151.06 69.986C151.161 70.3294 151.338 70.6135 151.591 70.8384C151.84 71.0613 152.132 71.2107 152.468 71.2866C152.801 71.3606 153.142 71.3463 153.491 71.2438C153.84 71.1413 154.135 70.9716 154.376 70.7349C154.614 70.4962 154.778 70.2185 154.869 69.9017C154.955 69.583 154.949 69.252 154.848 68.9085C154.771 68.6496 154.65 68.4232 154.484 68.2293C154.314 68.0363 154.117 67.8826 153.891 67.7684C153.661 67.6523 153.419 67.5798 153.165 67.5509C152.908 67.5227 152.655 67.5451 152.407 67.618C152.08 67.7141 151.797 67.8833 151.557 68.1255C151.317 68.3649 151.148 68.6484 151.052 68.9757C150.955 69.3003 150.958 69.6371 151.06 69.986Z" fill="white"/>
<path d="M146.458 60.6783C146.307 60.354 146.214 60.0016 146.18 59.621C146.147 59.2405 146.206 58.8502 146.358 58.4502C146.508 58.0514 146.784 57.6569 147.186 57.2666C147.589 56.8763 148.152 56.5087 148.875 56.1637C149.575 55.8298 150.228 55.5998 150.835 55.4738C151.439 55.3465 151.986 55.3185 152.476 55.3898C152.965 55.4586 153.391 55.6241 153.752 55.8862C154.112 56.1457 154.397 56.4973 154.609 56.9408C154.819 57.3819 154.92 57.817 154.911 58.2464C154.898 58.6744 154.787 59.0732 154.58 59.443C154.368 59.8114 154.07 60.1254 153.684 60.3851L153.236 59.4467C153.557 59.1896 153.776 58.8791 153.892 58.5153C154.004 58.1502 153.961 57.7599 153.763 57.3445C153.473 56.7368 152.979 56.384 152.28 56.2859C151.581 56.1853 150.746 56.3661 149.777 56.8285L149.807 56.8901C150.091 56.9309 150.358 57.0127 150.608 57.1355C150.859 57.2583 151.084 57.4201 151.284 57.6207C151.483 57.8214 151.648 58.0576 151.778 58.3294C151.993 58.7807 152.079 59.248 152.036 59.7313C151.989 60.2133 151.823 60.6607 151.538 61.0735C151.25 61.485 150.852 61.8118 150.344 62.054C149.862 62.284 149.369 62.3867 148.867 62.3621C148.36 62.3362 147.894 62.184 147.468 61.9055C147.042 61.6244 146.705 61.2153 146.458 60.6783ZM147.304 60.2746C147.458 60.5977 147.678 60.8502 147.963 61.0321C148.244 61.2127 148.557 61.3138 148.901 61.3354C149.241 61.3557 149.575 61.2875 149.903 61.1309C150.232 60.9744 150.496 60.7601 150.697 60.488C150.894 60.2147 151.012 59.9144 151.051 59.5873C151.086 59.2588 151.027 58.9331 150.873 58.61C150.756 58.3664 150.601 58.1621 150.406 57.9971C150.208 57.8334 149.988 57.713 149.747 57.6361C149.502 57.5579 149.252 57.5247 148.996 57.5365C148.738 57.5495 148.492 57.6116 148.259 57.7229C147.951 57.8697 147.698 58.0817 147.5 58.3589C147.3 58.6334 147.179 58.94 147.136 59.2785C147.092 59.6144 147.148 59.9464 147.304 60.2746Z" fill="white"/>
<path d="M149.988 48.8709L141.409 49.9949L141.353 50.0333L143.887 53.7515L143.113 54.2796L139.964 49.6599L140.78 49.1031L149.364 47.9555L149.988 48.8709Z" fill="white"/>
<path d="M143.246 39.9222C143.386 40.0793 143.45 40.2641 143.437 40.4767C143.425 40.6892 143.34 40.8654 143.183 41.0051C143.026 41.1448 142.841 41.2085 142.628 41.196C142.416 41.1836 142.24 41.0989 142.1 40.9418C141.96 40.7847 141.897 40.5999 141.909 40.3873C141.921 40.1747 142.006 39.9986 142.163 39.8589C142.267 39.7664 142.386 39.7079 142.521 39.6836C142.653 39.6571 142.784 39.6638 142.915 39.7036C143.041 39.7432 143.152 39.8161 143.246 39.9222Z" fill="white"/>
</svg>
