<svg width="617" height="245" viewBox="0 0 617 245" fill="none" xmlns="http://www.w3.org/2000/svg">
<path d="M81.6954 76.6857C71.5297 69.0927 64.4701 63.5245 60.3671 52.2392L58.9045 44.4937C54.6949 58.7845 57.0445 67.7848 76.2109 82.8579C87.4409 92.3283 90.6768 99.7045 91.0798 116.381C96.93 104.158 95.4674 86.9728 81.6954 76.6857Z" fill="white"/>
<path d="M94.1268 127.394C117.282 110.088 118.397 89.7444 99.9757 44.4937C91.2971 22.8265 93.534 12.828 114.724 0.199682C84.5234 1.39567 83.3104 28.4456 91.0798 45.341C105.04 75.6979 117.648 105.973 94.1268 127.394Z" fill="white"/>
<path d="M136.904 77.896C138.008 68.9135 139.52 64.6372 145.436 59.7427C135.52 62.1284 132.746 66.5413 129.834 77.896L128.007 90.7244C125.148 105.407 121.25 111.856 111.31 122.916C123.132 118.56 133.982 110.693 136.172 90.7244C136.904 83.9471 136.904 77.896 136.904 77.896Z" fill="white"/>
<path fill-rule="evenodd" clip-rule="evenodd" d="M27.9469 134.777H177.367V137.802C206.495 127.394 212.224 172.051 153.602 189.236L143.364 197.225C243.542 231.36 -28.3066 234.118 56.5877 199.04C70.8445 208.03 79.9966 209.551 97.2943 209.326C51.5907 201.255 27.9469 173.746 27.9469 134.777ZM163.5 178.5L181.5 143C192.294 139.103 195 143.5 194 151.5C193 159.5 180.822 171.858 163.5 178.5Z" fill="white"/>
<path d="M571.181 220.24C570.541 220.24 569.661 220.2 568.541 220.12C567.421 220.04 566.261 219.96 565.061 219.88L586.421 137.32C586.661 136.2 587.901 135.64 590.141 135.64C590.941 135.64 591.741 135.68 592.541 135.76C593.421 135.84 594.141 135.92 594.701 136L616.181 218.2C616.341 218.84 616.141 219.36 615.581 219.76C615.101 220.08 613.901 220.24 611.981 220.24C611.261 220.24 610.421 220.2 609.461 220.12C608.581 220.12 607.501 220.08 606.221 220L594.941 172.72C594.301 170 593.701 167.24 593.141 164.44C592.581 161.64 592.061 158.96 591.581 156.4C591.181 153.76 590.901 151.48 590.741 149.56C590.581 151.48 590.261 153.76 589.781 156.4C589.381 158.96 588.901 161.64 588.341 164.44C587.781 167.24 587.141 170 586.421 172.72L575.741 218.32C575.581 218.96 575.261 219.44 574.781 219.76C574.301 220.08 573.101 220.24 571.181 220.24ZM577.421 198.64V189.76H606.101V198.64H577.421Z" fill="white"/>
<path d="M549.348 220V140.44C549.348 138.92 549.508 137.88 549.828 137.32C550.148 136.68 550.988 136.32 552.348 136.24C553.788 136.08 556.108 136 559.308 136V218.08C559.308 218.72 559.148 219.16 558.828 219.4C558.508 219.64 557.668 219.8 556.308 219.88C555.028 219.96 552.708 220 549.348 220Z" fill="white"/>
<path d="M509.465 185.92C508.265 185.92 507.625 185.72 507.545 185.32C507.465 184.92 507.425 184.24 507.425 183.28V138.28C507.425 138.04 507.425 137.6 507.425 136.96C507.505 136.32 507.985 136 508.865 136H520.025C525.065 136 529.225 136.84 532.505 138.52C535.785 140.12 538.185 142.68 539.705 146.2C541.305 149.64 542.105 154.16 542.105 159.76C542.105 164.72 541.505 168.88 540.305 172.24C539.185 175.52 537.585 178.16 535.505 180.16C533.505 182.16 531.185 183.64 528.545 184.6C525.905 185.48 523.105 185.92 520.145 185.92H509.465ZM506.105 220V137.92C506.105 137.28 506.225 136.8 506.465 136.48C506.785 136.16 507.345 136 508.145 136H513.905C514.865 136 515.425 136.32 515.585 136.96C515.745 137.6 515.825 137.92 515.825 137.92V218.08C515.825 218.72 515.665 219.16 515.345 219.4C515.105 219.64 514.305 219.8 512.945 219.88C511.665 219.96 509.385 220 506.105 220ZM515.585 176.92H521.105C523.345 176.92 525.185 176.32 526.625 175.12C528.145 173.92 529.305 172 530.105 169.36C530.905 166.64 531.305 163.04 531.305 158.56C531.305 155.76 531.025 153.32 530.465 151.24C529.905 149.08 528.905 147.44 527.465 146.32C526.105 145.12 524.225 144.52 521.825 144.52H515.585V176.92Z" fill="white"/>
<path d="M474.82 221.2C470.9 221.2 467.54 220.56 464.74 219.28C462.02 217.92 459.78 215.6 458.02 212.32C456.34 209.04 455.1 204.6 454.3 199C453.5 193.32 453.1 186.16 453.1 177.52C453.1 166.88 453.94 158.44 455.62 152.2C457.3 145.96 459.82 141.52 463.18 138.88C466.62 136.16 470.94 134.8 476.14 134.8C479.98 134.8 483.26 135.52 485.98 136.96C488.7 138.32 490.9 140.64 492.58 143.92C494.26 147.12 495.46 151.44 496.18 156.88C496.98 162.24 497.38 169 497.38 177.16C497.38 188.2 496.58 196.92 494.98 203.32C493.46 209.72 491.02 214.32 487.66 217.12C484.38 219.84 480.1 221.2 474.82 221.2ZM475.18 211.12C478.14 211.12 480.42 210.04 482.02 207.88C483.7 205.64 484.9 202.04 485.62 197.08C486.42 192.04 486.82 185.48 486.82 177.4C486.82 169.4 486.5 163.04 485.86 158.32C485.22 153.52 484.1 150.08 482.5 148C480.98 145.92 478.78 144.88 475.9 144.88C473.1 144.88 470.82 146 469.06 148.24C467.3 150.48 466.02 154.16 465.22 159.28C464.42 164.4 464.02 171.28 464.02 179.92C464.02 187.36 464.34 193.36 464.98 197.92C465.7 202.48 466.86 205.84 468.46 208C470.14 210.08 472.38 211.12 475.18 211.12Z" fill="white"/>
<path d="M425.999 220V137.44C425.999 137.44 426.079 137.4 426.239 137.32C426.399 137.16 426.959 137.08 427.919 137.08H433.679C434.719 137.08 435.319 137.16 435.479 137.32C435.639 137.4 435.719 137.44 435.719 137.44V218.08C435.719 218.72 435.559 219.16 435.239 219.4C434.999 219.64 434.199 219.8 432.839 219.88C431.479 219.96 429.199 220 425.999 220ZM409.679 145.12V137.92C409.679 136.64 410.359 136 411.719 136H452.519V143.2C452.519 143.92 452.359 144.44 452.039 144.76C451.719 145 451.199 145.12 450.479 145.12H409.679Z" fill="white"/>
<path d="M384.323 220.96C382.883 220.96 381.763 220.36 380.963 219.16C380.163 217.88 379.523 216.2 379.043 214.12L372.923 187.12C372.603 185.2 372.203 182.76 371.723 179.8C371.323 176.84 370.923 173.76 370.523 170.56C370.123 167.36 369.763 164.36 369.443 161.56C369.123 158.76 368.843 156.48 368.603 154.72C368.443 152.96 368.363 152.08 368.363 152.08L365.483 142.84C365.243 141.8 365.283 141.08 365.603 140.68C365.923 140.28 366.563 140.08 367.523 140.08H374.003L382.403 182.44C383.123 186.04 383.683 189.4 384.083 192.52C384.563 195.64 384.923 198.6 385.163 201.4C385.483 204.12 385.763 206.76 386.003 209.32H386.723C386.963 205.56 387.323 201.28 387.803 196.48C388.363 191.68 389.003 187 389.723 182.44L397.403 138.88C397.563 137.92 397.803 137.2 398.123 136.72C398.443 136.24 399.043 136 399.923 136H408.203L392.483 220.36C391.363 220.44 390.403 220.52 389.603 220.6C388.883 220.76 388.123 220.84 387.323 220.84C386.603 220.92 385.603 220.96 384.323 220.96ZM350.243 220.84C349.043 220.84 348.003 220.16 347.123 218.8C346.323 217.36 345.723 215.56 345.323 213.4C344.683 210.04 343.843 205.92 342.803 201.04C341.843 196.16 340.803 190.92 339.683 185.32C338.643 179.72 337.603 174.2 336.563 168.76C335.603 163.24 334.683 158.24 333.803 153.76C332.923 149.2 332.243 145.6 331.763 142.96C331.283 140.24 331.043 138.88 331.043 138.88C330.803 137.84 330.803 137.12 331.043 136.72C331.283 136.24 331.963 136 333.083 136H341.123L349.763 182.44C350.403 186.04 350.923 189.44 351.323 192.64C351.803 195.76 352.203 198.72 352.523 201.52C352.843 204.24 353.123 206.88 353.363 209.44H354.083C354.323 204.64 354.683 200.04 355.163 195.64C355.723 191.16 356.403 186.76 357.203 182.44L364.523 142.96C364.683 141.92 364.883 141.2 365.123 140.8C365.443 140.32 366.083 140.08 367.043 140.08H371.243C372.523 140.08 373.203 140.32 373.283 140.8C373.443 141.28 373.443 141.96 373.283 142.84L370.043 152.2C370.043 152.2 369.923 153.08 369.683 154.84C369.523 156.6 369.283 158.88 368.963 161.68C368.643 164.4 368.283 167.36 367.883 170.56C367.563 173.68 367.203 176.72 366.803 179.68C366.403 182.64 366.043 185.08 365.723 187L359.123 220.36C357.683 220.52 356.323 220.64 355.043 220.72C353.843 220.8 352.243 220.84 350.243 220.84Z" fill="white"/>
<path d="M297.046 220V137.92C297.046 137.92 297.126 137.6 297.286 136.96C297.526 136.32 298.126 136 299.086 136H327.886C327.886 138.64 327.846 140.56 327.766 141.76C327.686 142.96 327.526 143.76 327.286 144.16C327.046 144.56 326.646 144.76 326.086 144.76H306.766V211.24H327.406C327.406 213.96 327.366 215.96 327.286 217.24C327.206 218.44 327.046 219.2 326.806 219.52C326.566 219.84 326.126 220 325.486 220H297.046ZM298.366 178.72V169.84H324.886C324.886 173.52 324.806 175.92 324.646 177.04C324.486 178.16 323.966 178.72 323.086 178.72H298.366Z" fill="white"/>
<path d="M255.637 185.92C254.437 185.92 253.797 185.72 253.717 185.32C253.637 184.92 253.597 184.24 253.597 183.28V138.28C253.597 138.04 253.597 137.6 253.597 136.96C253.677 136.32 254.157 136 255.037 136H266.197C271.237 136 275.397 136.84 278.677 138.52C281.957 140.12 284.357 142.68 285.877 146.2C287.477 149.64 288.277 154.16 288.277 159.76C288.277 164.72 287.677 168.88 286.477 172.24C285.357 175.52 283.757 178.16 281.677 180.16C279.677 182.16 277.357 183.64 274.717 184.6C272.077 185.48 269.277 185.92 266.317 185.92H255.637ZM252.277 220V137.92C252.277 137.92 252.357 137.6 252.517 136.96C252.757 136.32 253.357 136 254.317 136H260.077C261.037 136 261.597 136.32 261.757 136.96C261.917 137.6 261.997 137.92 261.997 137.92V218.08C261.997 218.72 261.837 219.16 261.517 219.4C261.277 219.64 260.477 219.8 259.117 219.88C257.757 219.96 255.477 220 252.277 220ZM284.197 220.24C283.477 220.24 282.597 220.2 281.557 220.12C280.597 220.12 279.557 220.08 278.437 220C278.037 213.12 277.197 207.36 275.917 202.72C274.717 198 273.397 194.28 271.957 191.56C270.597 188.76 269.397 186.76 268.357 185.56C267.317 184.36 266.797 183.76 266.797 183.76C266.797 183.76 266.717 183.52 266.557 183.04C266.397 182.56 266.717 182.08 267.517 181.6L272.797 178.72C273.757 178.72 274.437 179.08 274.837 179.8C274.837 179.8 275.477 180.52 276.757 181.96C278.037 183.4 279.557 185.68 281.317 188.8C283.077 191.84 284.717 195.76 286.237 200.56C287.757 205.36 288.717 211.12 289.117 217.84C289.117 218.72 288.877 219.36 288.397 219.76C287.917 220.08 286.517 220.24 284.197 220.24ZM261.757 176.92H267.277C269.517 176.92 271.357 176.36 272.797 175.24C274.317 174.04 275.477 172.16 276.277 169.6C277.077 166.96 277.477 163.52 277.477 159.28C277.477 156.24 277.197 153.6 276.637 151.36C276.077 149.12 275.077 147.44 273.637 146.32C272.277 145.12 270.397 144.52 267.997 144.52H261.757V176.92Z" fill="white"/>
<path d="M207.16 220V138.28C207.16 137.56 207.36 137 207.76 136.6C208.24 136.2 209.12 136 210.4 136H222.28C224.68 136 227.08 136.28 229.48 136.84C231.88 137.32 234.04 138.24 235.96 139.6C237.88 140.88 239.44 142.72 240.64 145.12C241.84 147.52 242.44 150.68 242.44 154.6C242.44 159 241.84 162.56 240.64 165.28C239.44 168 237.96 170.08 236.2 171.52C234.44 172.88 232.68 173.68 230.92 173.92C232.28 174 233.76 174.32 235.36 174.88C237.04 175.36 238.6 176.24 240.04 177.52C241.56 178.72 242.76 180.44 243.64 182.68C244.6 184.92 245.08 187.84 245.08 191.44C245.08 195.44 244.68 199 243.88 202.12C243.16 205.24 242.08 207.92 240.64 210.16C239.28 212.4 237.64 214.28 235.72 215.8C233.8 217.24 231.72 218.32 229.48 219.04C227.24 219.68 224.84 220 222.28 220H207.16ZM217.12 211.48H222.52C224.04 211.48 225.44 211.12 226.72 210.4C228.08 209.68 229.28 208.56 230.32 207.04C231.36 205.44 232.16 203.44 232.72 201.04C233.36 198.64 233.68 195.72 233.68 192.28C233.68 189.16 233.4 186.72 232.84 184.96C232.36 183.12 231.6 181.76 230.56 180.88C229.6 179.92 228.44 179.32 227.08 179.08C225.72 178.84 224.24 178.72 222.64 178.72H217.12V211.48ZM217.12 170.32H223C224.68 170.32 226.16 169.84 227.44 168.88C228.8 167.92 229.84 166.4 230.56 164.32C231.36 162.24 231.76 159.6 231.76 156.4C231.76 153.12 231.32 150.64 230.44 148.96C229.64 147.28 228.56 146.16 227.2 145.6C225.84 144.96 224.4 144.64 222.88 144.64H217.12V170.32Z" fill="white"/>
</svg>
